<?xml version="1.0" standalone="no"?>
<!DOCTYPE svg PUBLIC "-//W3C//DTD SVG 20010904//EN"
 "http://www.w3.org/TR/2001/REC-SVG-20010904/DTD/svg10.dtd">
<svg version="1.0" xmlns="http://www.w3.org/2000/svg"
 width="884.000000pt" height="884.000000pt" viewBox="0 0 884.000000 884.000000"
 preserveAspectRatio="xMidYMid meet">
<metadata>
Created by potrace 1.14, written by Peter Selinger 2001-2017
</metadata>
<g transform="translate(0.000000,884.000000) scale(0.100000,-0.100000)"
fill="#000000" stroke="none">
<path d="M4333 8575 c-18 -24 -33 -49 -33 -55 0 -5 -4 -10 -9 -10 -5 0 -12
-16 -15 -35 -4 -19 -18 -43 -31 -54 -14 -10 -25 -27 -25 -37 -1 -21 -34 -121
-44 -131 -10 -11 -7 -163 4 -163 6 0 10 -8 10 -17 0 -10 7 -31 15 -47 8 -15
15 -44 15 -62 0 -21 5 -34 13 -34 15 0 42 -40 39 -58 -2 -7 4 -15 13 -18 8 -3
15 -15 15 -26 0 -11 11 -29 25 -40 14 -11 25 -25 25 -33 0 -45 64 -33 93 17 9
15 23 28 32 28 8 0 15 9 15 20 0 12 11 31 25 44 14 13 25 32 25 44 0 11 7 22
15 26 10 4 15 19 15 49 0 24 5 48 12 55 10 10 29 93 29 132 0 46 -15 121 -27
131 -8 7 -14 31 -14 60 0 37 -4 49 -15 49 -9 0 -15 9 -15 23 -1 25 -22 57 -39
57 -6 0 -11 11 -11 25 0 14 -6 25 -13 25 -7 0 -23 18 -36 40 -31 56 -65 55
-108 -5z"/>
<path d="M2790 8252 c0 -26 -4 -52 -9 -57 -19 -19 -35 -101 -34 -175 0 -74 20
-170 35 -170 5 0 8 -15 8 -32 1 -33 29 -78 49 -78 6 0 11 -8 11 -17 0 -18 84
-113 99 -113 4 0 14 -11 21 -25 8 -15 22 -25 36 -25 12 0 29 -11 38 -25 9 -14
29 -28 44 -31 15 -4 33 -11 40 -17 8 -7 21 -6 37 1 22 10 25 18 25 62 0 32 6
57 15 66 21 22 21 256 0 298 -8 15 -15 44 -15 62 0 19 -4 34 -10 34 -5 0 -10
11 -10 23 0 16 -9 28 -25 35 -14 7 -29 20 -32 29 -4 9 -14 26 -22 36 -20 23
-148 117 -160 117 -5 0 -11 7 -15 15 -3 8 -12 15 -21 15 -8 0 -15 5 -15 10 0
6 -20 10 -45 10 l-45 0 0 -48z"/>
<path d="M5887 8275 c-10 -14 -26 -25 -35 -25 -9 0 -29 -11 -44 -25 -15 -14
-31 -25 -37 -25 -19 0 -107 -97 -129 -143 -13 -26 -28 -47 -33 -47 -5 0 -9
-16 -9 -35 0 -18 -6 -38 -13 -42 -20 -11 -31 -75 -30 -168 0 -89 8 -134 29
-182 8 -17 14 -47 14 -67 0 -34 1 -36 35 -36 19 0 35 4 35 9 0 5 11 12 24 15
13 3 34 17 47 31 13 13 34 25 45 25 15 0 24 8 28 25 4 15 14 25 25 25 9 0 23
11 31 24 7 13 21 27 31 29 11 3 19 14 19 25 0 11 11 30 25 43 13 13 25 29 25
35 0 6 7 17 15 24 8 7 15 27 15 45 0 18 7 46 15 61 21 40 21 246 1 267 -9 8
-16 39 -18 73 l-3 59 -45 3 c-38 2 -48 -2 -63 -23z"/>
<path d="M3674 8025 c-4 -8 -12 -15 -20 -15 -9 0 -14 -11 -14 -31 0 -17 -11
-45 -24 -62 -34 -45 -46 -175 -31 -327 7 -61 12 -78 32 -93 12 -10 23 -29 23
-42 0 -16 7 -25 25 -29 17 -4 25 -13 25 -27 0 -12 8 -23 19 -26 10 -2 24 -15
31 -28 7 -13 21 -26 32 -28 11 -3 22 -15 25 -26 8 -31 39 -26 78 14 24 24 35
43 35 64 0 17 11 51 25 77 23 43 25 58 25 166 0 114 -1 120 -25 142 -14 13
-25 34 -25 49 0 16 -12 39 -30 57 -16 17 -30 37 -30 45 0 22 -37 55 -60 55
-15 0 -20 7 -20 25 0 20 -5 25 -24 25 -13 0 -29 7 -36 15 -7 8 -17 15 -22 15
-5 0 -11 -7 -14 -15z"/>
<path d="M5053 8013 c-18 -2 -33 -10 -33 -17 0 -20 -44 -66 -63 -66 -11 0 -17
-8 -17 -23 0 -13 -9 -26 -22 -32 -13 -6 -29 -28 -38 -53 -8 -23 -23 -51 -32
-62 -15 -17 -18 -41 -18 -164 0 -115 3 -148 15 -160 8 -8 15 -21 15 -30 0 -8
5 -18 10 -21 6 -3 10 -19 10 -36 0 -18 5 -29 14 -29 8 0 16 -10 18 -22 2 -18
11 -24 36 -26 26 -3 38 3 67 34 19 20 35 43 35 50 0 7 10 14 23 16 14 2 23 11
25 25 2 12 14 29 28 37 15 10 24 26 24 42 0 13 7 27 15 30 8 4 15 12 15 19 0
7 6 15 13 18 9 3 12 45 12 167 0 122 -3 164 -12 168 -7 2 -13 12 -13 23 0 11
-7 22 -15 25 -8 4 -15 18 -15 34 0 29 -28 61 -51 58 -8 0 -29 -3 -46 -5z"/>
<path d="M2377 7503 c-10 -9 -9 -240 1 -261 5 -9 16 -32 25 -50 9 -19 17 -49
17 -68 0 -22 6 -37 15 -40 8 -4 15 -17 15 -30 0 -17 6 -24 19 -24 11 0 38 -18
60 -40 22 -22 47 -40 56 -40 8 0 20 -11 25 -25 7 -19 17 -25 39 -25 15 0 34
-7 41 -15 7 -8 20 -15 30 -15 10 0 21 -7 24 -16 4 -11 18 -14 53 -12 l48 3 3
126 c2 103 0 128 -13 139 -10 8 -15 30 -15 60 0 33 -5 50 -15 54 -8 3 -15 12
-15 20 0 9 -22 37 -49 63 -27 26 -50 57 -52 68 -3 12 -14 21 -29 23 -14 2 -29
10 -33 18 -4 8 -14 14 -21 14 -8 0 -19 7 -26 15 -7 8 -23 15 -36 15 -13 0 -24
5 -24 10 0 6 -8 10 -19 10 -10 0 -24 7 -31 15 -12 15 -81 21 -93 8z"/>
<path d="M6317 7496 c-4 -9 -16 -16 -27 -16 -11 0 -20 -4 -20 -10 0 -5 -12
-10 -28 -10 -17 0 -40 -12 -60 -30 -18 -16 -37 -30 -41 -30 -10 0 -93 -81
-138 -136 -21 -25 -33 -50 -33 -69 0 -17 -5 -36 -10 -41 -11 -11 -27 -84 -36
-159 -3 -22 1 -65 9 -95 14 -54 15 -55 54 -58 27 -2 44 2 53 13 7 8 19 15 27
15 8 0 21 7 29 15 9 8 26 15 38 15 14 0 28 10 36 25 7 14 21 25 31 25 10 0 35
17 56 38 22 20 48 42 58 48 11 6 23 24 27 40 4 16 18 41 30 54 16 18 25 43 31
90 18 160 19 196 4 241 -13 40 -18 44 -50 47 -24 2 -36 -2 -40 -12z"/>
<path d="M4360 7478 c0 -7 -14 -26 -30 -42 -17 -16 -30 -39 -30 -51 0 -13 -7
-28 -15 -35 -8 -7 -15 -23 -15 -36 0 -13 -4 -24 -10 -24 -5 0 -10 -10 -10 -23
0 -13 -7 -32 -15 -43 -19 -25 -19 -105 0 -130 8 -10 15 -29 15 -41 0 -13 5
-23 10 -23 6 0 10 -16 10 -35 0 -22 6 -38 15 -41 8 -4 15 -17 15 -30 0 -14 6
-24 14 -24 8 0 23 -14 33 -30 15 -26 23 -30 53 -28 27 2 35 8 40 28 4 16 14
26 28 28 12 2 22 11 22 19 0 30 24 83 37 83 14 0 19 80 14 215 -2 65 -24 135
-43 135 -5 0 -8 11 -8 25 0 14 -4 25 -9 25 -5 0 -20 17 -32 38 -13 20 -28 40
-33 44 -18 12 -56 9 -56 -4z"/>
<path d="M1477 7423 c-11 -10 -8 -91 3 -98 6 -3 10 -35 10 -69 0 -44 5 -67 15
-76 8 -7 15 -18 15 -25 0 -7 6 -18 14 -25 8 -6 16 -28 18 -48 2 -27 9 -40 26
-47 13 -6 22 -18 22 -32 0 -13 5 -23 10 -23 6 0 27 -18 49 -40 21 -22 46 -40
55 -40 9 0 20 -8 23 -17 10 -28 35 -42 71 -43 17 0 32 -4 32 -8 0 -15 66 -36
140 -44 143 -15 145 -15 142 7 -2 11 -6 66 -10 122 -6 93 -9 103 -34 127 -20
17 -28 35 -28 58 0 24 -7 39 -25 52 -14 11 -25 29 -25 42 0 15 -6 24 -15 24
-9 0 -15 9 -15 25 0 20 -5 25 -25 25 -14 0 -28 7 -31 15 -4 8 -14 15 -24 15
-10 0 -25 11 -34 25 -12 18 -25 25 -47 25 -17 0 -45 11 -63 25 -27 21 -44 25
-98 25 -41 0 -71 5 -84 15 -19 15 -75 20 -87 8z"/>
<path d="M7220 7415 c-14 -8 -52 -14 -87 -15 -35 0 -63 -4 -63 -10 0 -5 -8
-10 -19 -10 -10 0 -24 -7 -31 -15 -7 -8 -28 -15 -46 -15 -27 0 -37 -5 -46 -25
-6 -14 -18 -25 -27 -25 -18 -1 -104 -86 -114 -113 -4 -11 -16 -21 -27 -24 -15
-4 -20 -14 -20 -38 0 -18 -7 -38 -15 -45 -8 -7 -15 -18 -15 -25 0 -7 -6 -18
-14 -24 -8 -7 -17 -39 -20 -74 -3 -34 -8 -91 -12 -126 l-6 -63 39 6 c21 4 72
9 113 13 41 3 77 9 80 12 9 14 73 41 95 41 12 0 35 13 51 30 16 16 39 30 52
30 12 0 22 5 22 11 0 10 52 76 108 137 12 14 22 38 22 54 0 16 6 31 15 34 8 4
15 16 15 29 0 13 7 26 15 29 13 5 15 25 13 118 -3 112 -3 113 -28 115 -14 2
-36 -4 -50 -12z"/>
<path d="M3226 7236 c-12 -26 -16 -66 -16 -175 0 -123 3 -145 21 -181 12 -22
25 -40 30 -40 5 0 9 -11 9 -25 0 -17 5 -25 18 -25 9 0 35 -17 57 -38 77 -74
110 -94 152 -90 l38 3 8 70 c18 163 19 185 8 185 -7 0 -11 22 -11 55 0 49 -3
57 -30 77 -16 12 -30 28 -30 35 0 7 -18 30 -40 50 -22 21 -40 46 -40 55 0 9
-10 19 -22 23 -37 10 -72 29 -81 42 -16 26 -54 15 -71 -21z"/>
<path d="M5480 7252 c-14 -9 -26 -20 -28 -24 -2 -5 -8 -8 -13 -8 -5 0 -18 -8
-28 -17 -74 -69 -94 -90 -109 -115 -9 -15 -22 -28 -28 -28 -14 0 -24 -23 -24
-55 0 -13 -4 -27 -10 -30 -13 -8 -13 -205 -1 -205 6 0 11 -24 13 -52 l3 -53
43 -3 c25 -2 42 1 42 7 0 6 7 11 15 11 7 0 18 6 22 14 4 8 19 16 33 18 15 2
26 11 28 22 5 25 32 53 57 58 11 2 21 13 23 25 2 12 10 27 18 33 8 7 14 20 14
30 0 10 7 20 15 24 12 4 15 31 15 150 0 115 -3 148 -15 160 -8 8 -15 24 -15
35 0 26 -34 27 -70 3z"/>
<path d="M3866 6951 c-9 -16 -21 -31 -27 -33 -11 -4 -30 -107 -31 -163 0 -61
15 -140 28 -148 8 -4 14 -14 14 -22 0 -15 46 -65 60 -65 5 0 11 -9 15 -20 6
-20 56 -50 83 -50 25 0 62 49 62 81 0 16 5 29 10 29 6 0 10 45 10 115 0 63 -4
115 -8 115 -4 0 -12 15 -17 33 -6 17 -20 36 -32 42 -13 5 -23 20 -25 35 -2 17
-10 26 -25 28 -14 2 -23 11 -25 25 -2 17 -11 23 -40 25 -32 3 -39 -1 -52 -27z"/>
<path d="M4815 6947 c-31 -33 -48 -58 -63 -92 -6 -11 -19 -29 -31 -39 -19 -17
-21 -30 -21 -138 0 -112 2 -121 25 -152 14 -18 25 -45 25 -60 0 -35 27 -46 49
-18 9 11 25 22 36 24 11 2 22 14 25 28 4 16 14 26 28 28 14 2 22 10 22 22 0
10 14 32 30 48 30 30 30 31 30 150 0 116 -1 120 -30 160 -16 23 -30 49 -30 57
0 29 -62 18 -95 -18z"/>
<path d="M4356 6681 c-4 -5 -4 -15 -1 -23 3 -8 -7 -23 -25 -36 -19 -14 -30
-31 -30 -46 0 -14 -6 -26 -12 -28 -22 -8 -17 -184 6 -235 11 -24 23 -43 28
-43 4 0 8 -6 8 -14 0 -8 7 -16 15 -20 8 -3 15 -15 15 -26 0 -13 7 -20 18 -20
24 0 45 18 71 63 13 20 27 37 32 37 5 0 9 12 9 28 1 15 7 38 15 52 19 33 19
108 0 144 -8 15 -15 36 -15 46 0 10 -7 23 -15 30 -8 7 -15 18 -15 25 0 7 -7
15 -15 19 -8 3 -15 14 -15 25 0 27 -60 45 -74 22z"/>
<path d="M2264 6607 c-3 -16 0 -39 10 -58 9 -18 16 -42 16 -55 0 -13 5 -26 10
-29 6 -3 10 -24 10 -46 0 -26 5 -42 15 -45 8 -4 15 -14 15 -23 1 -20 29 -55
53 -64 9 -3 22 -18 27 -32 5 -14 16 -25 25 -25 8 0 15 -4 15 -10 0 -5 9 -10
19 -10 10 0 21 -7 25 -15 3 -9 18 -15 35 -15 16 0 42 -7 57 -15 16 -8 38 -15
50 -15 11 0 25 -5 31 -11 6 -6 28 -9 49 -7 29 2 40 8 42 22 4 20 -22 127 -39
158 -5 10 -9 31 -9 48 0 18 -6 33 -15 36 -8 4 -15 17 -15 30 0 15 -6 24 -15
24 -8 0 -15 4 -15 9 0 5 -14 22 -31 38 -17 15 -39 36 -47 46 -9 9 -27 17 -39
17 -13 0 -23 5 -23 10 0 6 -15 10 -34 10 -18 0 -39 6 -45 14 -7 8 -31 17 -54
20 -23 3 -59 8 -79 12 -34 6 -38 4 -44 -19z"/>
<path d="M6440 6620 c-8 -5 -26 -10 -40 -10 -14 0 -34 -7 -44 -15 -11 -8 -33
-15 -48 -15 -26 0 -46 -7 -88 -32 -8 -5 -23 -11 -32 -14 -9 -3 -19 -12 -22
-20 -3 -8 -12 -14 -21 -14 -9 0 -15 -9 -15 -24 0 -13 -3 -26 -7 -28 -17 -7
-52 -68 -47 -81 3 -8 -2 -20 -11 -27 -8 -7 -15 -23 -15 -36 0 -12 -7 -30 -16
-38 -11 -11 -14 -31 -12 -73 l3 -58 39 -3 c38 -3 54 1 119 34 16 8 44 14 62
14 20 0 35 6 39 15 3 8 12 15 21 15 8 0 15 5 15 10 0 6 6 10 14 10 18 0 86 65
86 83 0 7 14 29 30 47 24 26 30 43 30 77 0 24 5 43 10 43 6 0 10 32 10 75 0
71 -1 75 -22 75 -13 0 -30 -5 -38 -10z"/>
<path d="M2980 6489 l0 -122 48 -62 c26 -35 61 -70 79 -80 17 -10 34 -24 37
-31 3 -8 17 -14 31 -14 14 0 25 -3 25 -7 0 -11 58 -43 76 -43 23 0 46 69 40
120 -19 155 -33 200 -64 200 -8 0 -12 9 -10 22 2 16 -3 23 -22 28 -16 4 -26
14 -28 28 -3 16 -12 25 -33 29 -16 3 -32 10 -35 14 -3 5 -18 9 -33 9 -16 0
-34 7 -41 15 -7 8 -25 15 -41 15 l-29 0 0 -121z"/>
<path d="M5736 6595 c-3 -9 -19 -15 -41 -15 -19 0 -35 -4 -35 -10 0 -5 -11
-10 -25 -10 -17 0 -29 -9 -40 -30 -9 -16 -22 -30 -29 -30 -8 0 -16 -10 -19
-22 -4 -13 -16 -27 -29 -33 -19 -8 -24 -19 -26 -57 -2 -27 -7 -48 -13 -48 -5
0 -9 -46 -9 -105 0 -104 0 -105 24 -105 26 0 86 30 86 43 0 4 14 7 31 7 25 0
42 12 90 62 32 34 59 65 59 70 0 4 5 8 10 8 6 0 10 9 10 20 0 11 7 23 15 26
12 5 15 29 15 125 l0 119 -34 0 c-21 0 -36 -6 -40 -15z"/>
<path d="M1409 6518 c-5 -53 4 -135 17 -144 8 -6 14 -18 14 -27 0 -9 6 -20 13
-24 7 -4 21 -25 31 -46 20 -44 119 -147 141 -147 9 0 26 -12 38 -26 17 -19 36
-27 70 -31 26 -3 50 -10 53 -14 3 -5 63 -9 135 -9 l129 0 0 55 c0 30 -4 55
-10 55 -5 0 -10 9 -10 20 0 11 -7 23 -15 26 -8 4 -15 14 -15 24 0 10 -7 31
-14 47 -8 15 -17 36 -20 46 -3 9 -14 17 -25 17 -14 0 -21 8 -23 28 -2 19 -9
28 -25 30 -14 2 -23 11 -25 25 -2 15 -11 23 -28 25 -14 2 -32 9 -40 15 -33 26
-61 37 -92 37 -18 1 -44 7 -58 15 -33 19 -239 21 -241 3z"/>
<path d="M7130 6515 c-14 -8 -42 -14 -62 -15 -21 0 -38 -4 -38 -10 0 -5 -6
-10 -14 -10 -7 0 -19 -6 -26 -14 -6 -8 -24 -16 -38 -18 -19 -2 -28 -10 -30
-25 -2 -15 -10 -23 -23 -23 -13 0 -25 -13 -36 -40 -10 -22 -21 -40 -25 -40
-18 0 -48 -42 -48 -66 0 -14 -11 -40 -25 -58 -20 -26 -25 -45 -25 -89 l0 -57
130 0 c80 0 130 4 130 10 0 6 20 10 45 10 37 0 50 5 73 30 16 17 39 30 51 30
11 0 21 5 21 11 0 14 25 39 39 39 6 0 11 5 11 11 0 13 20 33 43 42 10 4 17 17
17 32 0 14 5 25 10 25 6 0 10 8 10 18 0 10 13 36 30 58 23 31 29 49 30 90 0
27 -5 55 -12 62 -18 18 -206 15 -238 -3z"/>
<path d="M5172 6503 c-12 -2 -29 -15 -38 -28 -9 -13 -25 -25 -37 -27 -12 -2
-23 -12 -26 -22 -2 -11 -14 -28 -27 -39 -13 -10 -24 -29 -24 -43 0 -13 -8 -42
-17 -65 -15 -39 -15 -46 0 -105 9 -34 17 -72 17 -84 0 -21 3 -22 40 -16 42 7
80 25 80 39 0 4 12 12 26 17 14 6 28 19 31 29 3 11 11 22 19 25 8 3 14 12 14
19 0 8 7 20 15 27 12 10 15 40 15 146 l0 134 -32 -1 c-18 -1 -43 -4 -56 -6z"/>
<path d="M3528 6440 c-10 -32 -18 -72 -18 -87 0 -33 29 -113 41 -113 5 0 9
-11 9 -25 0 -14 7 -28 15 -31 8 -4 15 -17 15 -30 0 -18 5 -24 22 -24 12 0 31
-11 43 -24 14 -17 35 -27 67 -31 l47 -7 6 36 c4 20 6 83 3 141 -3 95 -6 107
-29 132 -14 15 -29 36 -32 46 -4 9 -17 21 -29 26 -13 5 -32 18 -42 30 -14 15
-31 21 -60 21 l-41 0 -17 -60z"/>
<path d="M4015 6303 c-27 -27 -36 -63 -38 -153 -2 -93 13 -145 44 -153 10 -3
19 -13 19 -22 0 -23 49 -65 76 -65 20 0 24 5 24 33 0 18 7 43 17 56 22 33 23
137 1 182 -9 19 -19 42 -22 52 -4 11 -15 21 -26 24 -11 3 -20 14 -20 24 0 17
-27 39 -49 39 -5 0 -17 -7 -26 -17z"/>
<path d="M4714 6313 c-7 -5 -13 -17 -15 -28 -3 -12 -14 -21 -27 -23 -15 -2
-22 -10 -22 -26 0 -13 -7 -29 -15 -36 -8 -7 -15 -21 -15 -31 0 -11 -4 -19 -10
-19 -21 0 -11 -101 15 -152 14 -27 25 -58 25 -69 0 -54 105 19 140 97 25 54
29 214 6 234 -8 6 -16 21 -18 33 -3 23 -42 35 -64 20z"/>
<path d="M830 6145 c-14 -8 -43 -14 -66 -15 -22 0 -44 -4 -50 -9 -5 -6 -34
-11 -64 -13 -52 -3 -55 -4 -58 -32 -5 -43 5 -70 30 -81 14 -6 24 -20 26 -35 2
-14 18 -43 37 -65 19 -22 35 -43 35 -47 0 -5 7 -8 15 -8 7 0 18 -6 22 -14 4
-8 17 -15 28 -17 12 -3 21 -14 23 -27 2 -13 10 -22 20 -22 9 0 32 -14 51 -30
24 -22 44 -30 70 -30 21 0 43 -6 49 -12 16 -16 280 -16 290 -1 4 6 31 12 61
15 29 3 57 11 62 19 15 23 11 69 -6 69 -8 0 -15 9 -15 20 0 12 -11 31 -25 44
-14 13 -25 33 -25 45 0 12 -6 21 -15 21 -9 0 -15 9 -15 25 0 20 -5 25 -24 25
-19 0 -25 6 -28 28 -2 20 -9 28 -27 30 -14 2 -33 15 -44 28 -10 13 -29 24 -42
24 -12 0 -28 7 -35 15 -7 8 -27 15 -46 15 -18 0 -36 5 -39 10 -3 6 -16 10 -28
10 -12 0 -40 7 -62 15 -50 18 -74 18 -105 0z"/>
<path d="M7855 6145 c-22 -8 -52 -15 -67 -15 -16 0 -28 -4 -28 -10 0 -5 -17
-10 -39 -10 -21 0 -44 -6 -51 -14 -6 -8 -26 -16 -43 -18 -24 -2 -33 -8 -35
-25 -2 -15 -11 -23 -30 -25 -16 -2 -28 -11 -32 -23 -7 -29 -52 -85 -67 -85 -7
0 -13 -11 -13 -24 0 -17 -7 -26 -25 -30 -20 -5 -25 -13 -25 -36 0 -19 -7 -33
-20 -40 -13 -7 -20 -21 -20 -41 0 -36 27 -49 100 -49 28 0 50 -5 52 -12 6 -17
253 -17 269 0 7 6 30 12 51 12 27 0 46 8 71 30 19 17 40 30 46 30 6 0 23 10
37 23 67 57 104 95 104 104 0 6 11 22 25 37 14 15 25 35 25 45 0 10 14 29 30
41 26 20 30 30 28 59 l-3 36 -55 3 c-30 1 -64 6 -75 11 -11 5 -45 14 -75 20
-30 6 -64 14 -75 16 -11 3 -38 -2 -60 -10z"/>
<path d="M2844 6035 c-10 -24 5 -82 32 -130 13 -24 24 -53 24 -64 0 -11 6 -24
13 -28 8 -4 16 -15 19 -24 4 -9 28 -27 55 -40 26 -12 51 -27 54 -32 9 -12 91
-21 123 -13 25 6 26 9 26 80 0 59 -3 75 -16 80 -10 4 -14 12 -10 22 4 10 -7
28 -30 50 -20 19 -40 34 -44 34 -3 0 -16 14 -28 30 -19 25 -29 30 -67 30 -24
0 -47 5 -50 10 -10 17 -95 12 -101 -5z"/>
<path d="M3378 6042 c-9 -2 -19 -15 -22 -30 -8 -34 20 -181 38 -201 7 -9 16
-24 19 -33 4 -10 16 -18 27 -18 11 0 20 -4 20 -10 0 -20 108 -54 137 -43 16 6
19 138 3 148 -5 3 -10 17 -10 29 0 21 -51 82 -103 123 -22 18 -89 39 -109 35z"/>
<path d="M5375 6041 c-3 -6 -14 -11 -23 -11 -27 0 -122 -70 -122 -91 0 -10 -4
-21 -10 -24 -25 -15 -41 -74 -38 -141 l3 -69 45 3 c25 2 47 8 48 13 2 5 8 9
14 9 21 0 82 57 114 108 33 51 35 58 32 130 -3 75 -4 77 -30 80 -14 2 -29 -2
-33 -7z"/>
<path d="M5835 6040 c-3 -5 -23 -10 -43 -10 -25 0 -45 -8 -63 -24 -14 -13 -35
-29 -47 -35 -12 -6 -22 -18 -22 -25 0 -8 -7 -19 -15 -26 -8 -7 -15 -20 -15
-30 0 -10 -7 -20 -15 -24 -10 -4 -15 -20 -15 -51 0 -26 -5 -56 -11 -67 -10
-18 -8 -24 7 -36 27 -19 137 -11 161 13 9 10 31 24 48 31 16 7 37 22 45 34 15
22 25 33 55 58 9 8 15 30 15 57 0 24 4 46 9 49 11 7 20 66 14 84 -6 15 -99 17
-108 2z"/>
<path d="M2286 5911 c-8 -13 5 -71 15 -71 5 0 9 -13 9 -30 0 -21 9 -38 30 -57
17 -14 30 -34 30 -43 0 -18 95 -90 118 -90 7 0 20 -4 30 -9 85 -43 178 -49
230 -15 29 19 28 39 -3 68 -16 15 -25 34 -25 53 0 17 -7 36 -15 43 -8 7 -15
19 -15 26 0 16 -35 54 -49 54 -5 0 -11 7 -15 15 -3 8 -12 15 -19 15 -18 0 -75
28 -82 41 -8 12 -232 12 -239 0z"/>
<path d="M6260 5913 c0 -11 -58 -43 -76 -43 -8 0 -17 -7 -20 -15 -4 -8 -12
-15 -20 -15 -8 0 -14 -9 -14 -20 0 -12 -10 -24 -24 -29 -14 -6 -25 -20 -29
-38 -3 -15 -17 -45 -32 -67 -39 -58 -32 -87 28 -105 40 -12 55 -13 90 -2 23 7
57 15 75 18 17 3 32 9 32 14 0 5 11 9 24 9 14 0 31 7 40 15 8 8 24 15 36 15
11 0 23 8 26 18 3 9 9 26 14 37 5 11 11 28 14 38 3 9 12 17 21 17 8 0 15 1 15
3 0 1 9 27 20 57 37 101 39 100 -100 100 -66 0 -120 -3 -120 -7z"/>
<path d="M1657 5673 c-14 -14 -7 -94 8 -100 9 -3 24 -22 35 -42 23 -46 95
-121 115 -121 8 0 15 -4 15 -10 0 -5 13 -10 29 -10 16 0 34 -7 41 -15 7 -8 20
-15 30 -15 9 0 31 -7 48 -16 33 -16 116 -11 128 7 3 5 23 9 45 9 21 0 39 4 39
10 0 5 11 12 25 16 29 7 34 44 10 64 -8 7 -15 22 -15 34 0 39 -147 176 -189
176 -12 0 -21 5 -21 10 0 11 -332 14 -343 3z"/>
<path d="M6785 5670 c-3 -5 -16 -10 -29 -10 -12 0 -35 -13 -52 -29 -16 -16
-38 -30 -49 -32 -11 -3 -20 -12 -20 -21 0 -10 -9 -24 -19 -31 -11 -8 -16 -19
-12 -26 4 -6 -5 -22 -23 -37 -24 -19 -31 -34 -31 -60 0 -27 4 -34 19 -34 11 0
26 -7 35 -15 8 -8 23 -15 34 -15 11 0 37 -7 58 -16 39 -16 118 -12 129 7 4 5
17 9 29 9 13 0 29 7 36 15 7 8 23 15 36 15 13 0 24 5 24 10 0 6 11 10 25 10
14 0 25 4 25 10 0 14 33 50 46 50 6 0 14 9 17 21 3 11 15 23 26 26 14 3 21 13
21 28 0 13 7 25 15 29 22 8 20 75 -2 92 -22 16 -328 20 -338 4z"/>
<path d="M2850 5516 c0 -18 7 -39 15 -46 8 -7 15 -17 15 -23 0 -5 11 -25 25
-43 14 -18 25 -40 25 -48 0 -10 9 -16 24 -16 14 0 27 -4 31 -9 16 -27 92 -52
145 -49 l55 3 3 56 c3 55 2 57 -46 105 -27 27 -55 54 -63 59 -59 43 -64 45
-146 45 l-83 0 0 -34z"/>
<path d="M5726 5520 c-22 -17 -46 -30 -53 -30 -7 0 -13 -9 -13 -19 0 -11 -13
-30 -29 -43 -22 -20 -30 -36 -35 -81 -7 -55 -7 -56 19 -63 36 -9 128 1 133 15
2 6 12 11 22 11 9 0 23 6 29 14 7 8 23 17 36 20 14 4 25 12 25 19 1 16 35 57
48 57 9 0 15 25 24 100 3 25 2 25 -82 27 -81 3 -87 1 -124 -27z"/>
<path d="M2509 5375 c-4 -3 -35 -9 -70 -13 -74 -8 -84 -23 -44 -66 14 -15 25
-36 25 -47 0 -10 7 -19 15 -19 9 0 15 -9 15 -25 0 -20 5 -25 25 -25 14 0 28
-7 31 -15 4 -8 15 -15 25 -15 11 0 31 -7 44 -16 33 -22 157 -21 208 0 32 14
37 21 37 49 0 21 -9 40 -26 57 -14 13 -30 34 -35 47 -5 13 -16 23 -25 23 -9 0
-25 11 -35 24 -13 16 -33 25 -66 30 -26 3 -64 9 -83 12 -19 3 -38 3 -41 -1z"/>
<path d="M6200 5370 c-14 -4 -39 -8 -57 -9 -21 -1 -38 -9 -50 -25 -11 -13 -30
-26 -44 -28 -14 -2 -24 -10 -24 -19 0 -9 -12 -27 -27 -40 -35 -32 -43 -71 -20
-98 31 -39 187 -49 237 -15 11 8 30 14 42 14 13 0 23 5 23 10 0 6 11 15 25 20
14 5 29 18 32 27 4 10 18 28 31 40 16 15 26 37 29 66 l5 44 -58 7 c-33 3 -72
8 -89 10 -16 3 -41 1 -55 -4z"/>
<path d="M1110 5313 c-62 -3 -123 -23 -135 -43 -3 -6 -22 -10 -41 -10 -22 0
-37 -6 -40 -15 -4 -8 -12 -15 -20 -15 -32 0 -9 -44 60 -115 40 -41 78 -75 85
-75 6 0 17 -11 23 -25 9 -19 19 -25 45 -25 18 0 33 -4 33 -9 0 -5 14 -17 32
-25 36 -19 288 -24 288 -6 0 6 8 10 19 10 10 0 24 7 31 15 7 8 28 15 46 15 19
0 34 4 34 9 0 6 14 18 30 28 19 11 30 25 30 40 0 23 -31 63 -49 63 -5 0 -11
10 -13 22 -2 13 -11 24 -20 26 -10 2 -37 21 -60 43 -23 21 -51 39 -63 39 -11
0 -31 12 -44 25 -18 20 -33 25 -71 25 -26 0 -67 2 -91 4 -24 2 -73 1 -109 -1z"/>
<path d="M7494 5312 c-61 -2 -75 -6 -94 -27 -13 -14 -33 -25 -45 -25 -13 0
-37 -17 -57 -39 -19 -22 -46 -41 -59 -43 -18 -2 -23 -9 -22 -24 2 -17 -5 -23
-27 -28 -26 -5 -30 -10 -30 -40 0 -47 9 -66 31 -66 11 0 22 -7 25 -15 4 -9 19
-15 39 -15 20 0 35 -6 39 -15 3 -8 14 -15 25 -15 11 0 23 -4 26 -10 4 -6 58
-10 129 -10 120 0 173 11 191 41 4 5 15 9 26 9 26 0 75 38 156 118 47 47 63
70 63 91 0 35 -28 61 -64 61 -15 0 -42 11 -59 24 -27 20 -46 24 -127 27 -52 2
-127 3 -166 1z"/>
<path d="M2075 5072 c-55 -2 -76 -8 -102 -28 -17 -13 -36 -24 -41 -24 -9 0
-22 -23 -22 -37 0 -15 123 -123 140 -123 10 0 23 -6 27 -14 4 -7 22 -21 40
-30 42 -21 181 -22 209 -1 10 8 26 15 35 15 9 0 22 6 29 14 6 8 24 16 38 18
24 3 27 7 24 38 -3 33 -26 70 -45 70 -5 0 -18 11 -29 25 -11 14 -24 25 -29 25
-6 0 -25 11 -42 24 -35 26 -101 34 -232 28z"/>
<path d="M6563 5072 c-35 -2 -63 -7 -63 -11 0 -5 -8 -11 -17 -15 -10 -3 -25
-10 -33 -15 -8 -5 -23 -12 -32 -15 -10 -3 -18 -12 -18 -21 0 -19 -35 -55 -55
-55 -16 0 -30 -42 -21 -65 3 -9 18 -15 35 -15 16 0 32 -4 35 -9 3 -5 24 -18
46 -30 32 -16 59 -21 124 -21 76 0 86 2 124 30 23 17 46 30 51 30 5 0 29 18
52 40 24 22 51 40 61 40 14 0 18 8 18 40 0 30 -4 40 -16 40 -8 0 -30 11 -47
24 -34 25 -112 34 -244 28z"/>
<path d="M2675 4931 c-3 -6 -26 -20 -50 -32 -25 -12 -45 -29 -45 -36 0 -19 93
-104 143 -130 46 -25 101 -29 144 -12 15 6 37 15 48 20 11 4 29 9 40 11 37 6
31 53 -11 98 -21 22 -42 40 -47 40 -5 0 -22 11 -39 25 -26 22 -39 25 -103 25
-41 0 -76 -4 -80 -9z"/>
<path d="M5924 4915 c-14 -14 -29 -25 -34 -25 -4 0 -20 -13 -33 -30 -14 -16
-29 -30 -33 -30 -11 0 -33 -34 -34 -51 0 -19 20 -29 54 -29 12 0 41 -9 64 -20
51 -25 90 -25 145 -1 23 10 54 23 70 29 15 7 27 18 27 26 0 8 6 19 14 23 7 4
19 19 26 32 11 21 9 26 -12 46 -45 42 -83 55 -158 55 -62 0 -74 -3 -96 -25z"/>
<path d="M656 4715 c-11 -9 -41 -15 -68 -15 -38 0 -55 -5 -76 -25 -17 -15 -39
-25 -58 -25 -23 0 -34 -6 -42 -25 -6 -14 -20 -25 -29 -25 -10 0 -27 -14 -38
-30 -12 -18 -29 -30 -42 -30 -20 0 -23 -5 -23 -40 0 -36 2 -40 25 -40 14 0 28
-7 31 -15 4 -8 12 -15 20 -15 8 0 14 -4 14 -10 0 -5 7 -10 15 -10 9 0 18 -7
21 -15 4 -8 16 -15 28 -15 13 0 33 -11 46 -25 16 -17 34 -25 56 -25 18 0 39
-7 48 -15 8 -8 26 -15 40 -15 14 0 28 -4 31 -10 3 -5 35 -10 70 -10 35 0 67 5
70 10 3 6 17 10 29 10 13 0 29 7 36 15 7 9 29 15 52 15 36 0 46 4 83 38 7 6
25 12 40 12 18 0 28 7 35 24 5 13 18 27 29 31 12 3 21 11 21 16 0 5 9 9 20 9
17 0 20 7 20 40 0 29 -4 40 -15 40 -8 0 -24 14 -37 30 -12 17 -28 30 -35 30
-7 0 -13 5 -13 10 0 6 -7 10 -15 10 -9 0 -18 7 -21 15 -4 9 -19 15 -35 15 -16
0 -29 4 -29 9 0 16 -61 41 -99 41 -20 0 -49 7 -65 15 -36 19 -115 19 -140 0z"/>
<path d="M7996 4715 c-12 -9 -42 -15 -73 -15 -29 0 -53 -4 -53 -10 0 -5 -6
-10 -14 -10 -7 0 -19 -7 -26 -15 -7 -8 -26 -15 -41 -15 -22 0 -32 -6 -39 -25
-5 -14 -17 -25 -27 -25 -10 0 -29 -12 -42 -25 -13 -14 -34 -28 -48 -31 -21 -6
-24 -11 -21 -43 2 -29 8 -37 26 -39 12 -2 22 -7 22 -10 0 -4 17 -16 38 -27 20
-11 40 -24 43 -28 8 -10 47 -34 72 -43 9 -3 17 -10 17 -15 0 -5 17 -9 39 -9
22 0 44 -6 51 -15 7 -8 25 -15 41 -15 15 0 31 -4 34 -10 3 -5 33 -10 65 -10
32 0 62 5 65 10 3 6 19 10 34 10 16 0 34 7 41 15 7 8 28 15 46 15 19 0 34 5
34 10 0 6 6 10 14 10 7 0 19 7 26 15 7 8 21 15 32 15 10 0 21 7 24 15 4 8 12
15 20 15 8 0 14 5 14 10 0 6 6 10 14 10 7 0 19 7 26 15 7 8 20 15 30 15 35 0
41 66 8 80 -32 13 -58 35 -58 49 0 6 -9 11 -21 11 -12 0 -30 11 -41 25 -12 16
-30 25 -46 25 -15 0 -39 11 -54 25 -21 20 -38 25 -76 25 -27 0 -57 6 -68 15
-10 8 -39 14 -64 14 -25 0 -54 -6 -64 -14z"/>
<path d="M1710 4660 c-8 -5 -38 -10 -66 -10 -40 0 -57 -5 -78 -25 -15 -14 -35
-25 -45 -25 -19 0 -51 -30 -51 -48 0 -6 -12 -12 -27 -14 -25 -3 -28 -7 -28
-38 0 -30 4 -36 25 -38 14 -2 29 -10 33 -18 4 -8 15 -14 22 -14 8 0 15 -4 15
-10 0 -5 7 -10 15 -10 9 0 18 -7 21 -15 4 -8 17 -15 31 -15 13 0 34 -5 46 -12
23 -12 91 -29 117 -29 30 0 102 19 113 30 6 6 24 11 39 11 16 0 34 5 41 10 7
6 28 24 47 40 19 16 42 30 51 30 9 0 20 7 23 16 12 32 5 54 -23 68 -16 9 -31
24 -34 36 -3 13 -13 20 -29 20 -14 0 -35 11 -47 24 -17 18 -37 26 -79 29 -32
3 -70 8 -87 11 -16 4 -37 2 -45 -4z"/>
<path d="M7005 4660 c-11 -5 -42 -9 -68 -9 -38 -1 -53 -6 -71 -26 -13 -14 -32
-25 -43 -25 -10 0 -29 -13 -41 -30 -13 -16 -29 -30 -36 -30 -18 0 -23 -15 -18
-52 3 -18 10 -28 22 -28 10 0 23 -7 30 -15 7 -8 18 -15 24 -15 7 0 23 -11 36
-25 16 -17 34 -25 56 -25 18 0 34 -4 36 -10 2 -5 30 -17 62 -25 56 -15 61 -14
115 6 31 12 70 23 86 26 17 3 35 10 40 17 6 7 27 20 48 29 20 10 37 22 37 27
0 5 12 10 28 12 24 3 27 7 27 38 0 30 -4 35 -25 38 -15 2 -34 15 -45 32 -12
18 -29 30 -42 30 -13 0 -23 3 -23 8 0 13 -63 40 -105 46 -22 3 -56 8 -75 10
-19 3 -44 1 -55 -4z"/>
<path d="M2380 4610 c0 -5 -12 -10 -28 -10 -28 0 -71 -23 -85 -47 -4 -7 -19
-13 -33 -13 -23 0 -25 -3 -22 -37 2 -32 7 -39 28 -41 14 -2 29 -10 33 -18 4
-8 19 -14 32 -14 14 0 25 -4 25 -10 0 -5 8 -10 19 -10 10 0 24 -7 31 -15 9
-10 32 -15 76 -15 51 0 72 5 104 25 22 14 46 25 54 25 7 0 19 7 26 15 7 8 20
15 30 15 35 0 42 66 8 79 -13 5 -33 21 -45 35 -15 17 -33 26 -52 26 -17 0 -33
5 -36 10 -3 6 -42 10 -86 10 -46 0 -79 -4 -79 -10z"/>
<path d="M6235 4610 c-3 -5 -19 -10 -34 -10 -19 0 -35 -9 -51 -30 -14 -18 -32
-30 -46 -30 -21 0 -24 -5 -24 -35 0 -25 5 -37 18 -41 9 -3 29 -12 44 -20 14
-8 33 -14 42 -14 9 0 16 -4 16 -8 0 -4 13 -15 29 -25 32 -19 165 -24 176 -7 6
10 56 34 93 45 12 3 22 11 22 16 0 5 8 9 19 9 42 0 57 71 16 79 -11 2 -36 16
-56 32 -20 16 -49 29 -63 29 -14 0 -26 5 -26 10 0 6 -35 10 -84 10 -47 0 -88
-4 -91 -10z"/>
<path d="M2720 4269 c-30 -16 -67 -35 -82 -41 -19 -8 -28 -20 -28 -35 0 -13
-4 -23 -10 -23 -5 0 -10 -10 -10 -23 0 -41 45 -57 158 -57 96 0 102 1 150 33
36 22 51 39 51 55 1 13 7 22 16 22 9 0 15 9 15 25 0 21 -5 25 -28 25 -15 0
-33 5 -40 12 -15 15 -81 38 -112 38 -14 0 -50 -14 -80 -31z"/>
<path d="M5901 4274 c-24 -13 -56 -24 -72 -24 -42 0 -47 -38 -6 -53 9 -3 17
-15 17 -26 0 -14 9 -23 24 -27 14 -3 32 -17 41 -30 15 -23 20 -24 128 -24 96
1 115 3 135 20 20 17 23 26 17 58 -6 37 -47 82 -74 82 -5 0 -32 11 -59 25 -61
31 -94 31 -151 -1z"/>
<path d="M2176 4211 c-4 -6 -17 -11 -29 -11 -12 0 -31 -7 -41 -15 -11 -8 -32
-15 -47 -15 -20 0 -28 -6 -33 -25 -4 -15 -14 -25 -25 -25 -24 0 -94 -101 -85
-124 3 -9 14 -16 24 -16 11 0 22 -4 25 -10 3 -5 19 -10 34 -10 15 0 36 -7 47
-15 27 -21 177 -21 194 0 7 8 28 15 46 15 19 0 34 5 34 10 0 6 6 10 14 10 21
0 113 92 119 121 10 40 -17 69 -62 69 -21 0 -44 6 -50 14 -19 23 -154 45 -165
27z"/>
<path d="M6515 4210 c-3 -5 -17 -10 -29 -10 -13 0 -29 -7 -36 -15 -7 -8 -28
-15 -46 -15 -19 0 -34 -4 -34 -9 0 -5 -11 -12 -25 -15 -15 -4 -25 -13 -25 -25
0 -10 11 -27 25 -37 14 -10 25 -24 25 -31 0 -7 5 -13 10 -13 6 0 15 -11 20
-25 5 -14 20 -27 35 -31 14 -3 25 -10 25 -15 0 -5 15 -9 33 -9 18 0 42 -7 53
-15 13 -10 44 -14 94 -14 50 0 81 4 94 14 11 8 35 15 53 15 18 0 33 4 33 9 0
5 10 11 23 13 19 3 22 9 22 43 0 34 -4 41 -22 43 -14 2 -23 11 -25 25 -2 14
-11 23 -25 25 -12 2 -29 14 -37 28 -9 13 -26 24 -37 24 -12 0 -35 7 -52 16
-18 9 -40 21 -49 25 -24 12 -95 11 -103 -1z"/>
<path d="M1155 4052 c-16 -9 -31 -20 -33 -24 -2 -5 -11 -8 -21 -8 -9 0 -26 -6
-37 -14 -11 -8 -31 -16 -44 -18 -17 -2 -26 -10 -28 -25 -2 -13 -11 -23 -25
-25 -13 -2 -23 -12 -27 -28 -4 -15 -15 -26 -30 -30 -14 -3 -25 -13 -25 -23 0
-9 -6 -22 -13 -29 -29 -29 8 -78 61 -78 13 0 32 -7 43 -15 10 -8 35 -15 55
-15 20 0 42 -7 49 -15 10 -12 36 -15 115 -15 79 0 105 3 115 15 7 8 27 15 45
15 18 0 38 7 45 15 7 8 20 15 30 15 9 0 29 11 44 25 15 14 31 25 35 25 5 0 11
9 14 20 3 11 17 24 31 30 16 6 26 17 26 29 0 13 8 21 23 23 18 2 23 10 25 46
3 40 2 42 -23 42 -15 0 -33 7 -41 15 -9 8 -29 15 -45 15 -16 0 -29 5 -29 10 0
6 -8 10 -19 10 -10 0 -24 7 -31 15 -19 23 -244 21 -285 -3z"/>
<path d="M7340 4055 c-7 -8 -21 -15 -31 -15 -11 0 -19 -4 -19 -10 0 -5 -11
-10 -24 -10 -14 0 -31 -7 -40 -15 -8 -8 -26 -15 -40 -15 -24 0 -26 -4 -26 -41
0 -32 4 -42 20 -46 11 -3 20 -8 20 -12 0 -8 78 -91 86 -91 4 0 15 -11 26 -25
11 -14 28 -25 38 -25 10 0 25 -7 34 -15 8 -8 28 -15 44 -15 16 0 35 -7 42 -15
10 -12 37 -15 120 -15 83 0 110 3 120 15 7 8 28 15 47 15 19 0 41 7 49 15 9 8
30 15 48 15 40 0 56 15 56 55 0 54 -10 75 -36 75 -19 0 -24 5 -24 25 0 18 -7
26 -25 31 -14 3 -30 14 -35 24 -9 17 -37 33 -132 74 -20 9 -40 21 -43 26 -4 6
-62 10 -134 10 -102 0 -131 -3 -141 -15z"/>
<path d="M2645 3889 c-16 -3 -46 -7 -66 -8 -24 -1 -43 -9 -58 -25 -13 -14 -33
-26 -45 -28 -11 -2 -22 -12 -25 -23 -2 -11 -16 -35 -32 -53 -30 -34 -39 -82
-16 -82 7 0 19 -6 25 -12 7 -7 38 -18 69 -24 58 -11 88 -7 145 22 14 8 35 14
45 14 11 0 25 11 31 25 6 14 16 25 22 25 6 0 27 17 45 38 28 30 35 45 35 80
l0 42 -49 0 c-27 0 -60 4 -73 8 -13 5 -36 5 -53 1z"/>
<path d="M6095 3890 c-11 -5 -46 -9 -77 -9 -31 -1 -60 -6 -63 -12 -11 -17 31
-119 49 -119 6 0 28 -18 49 -40 20 -22 45 -40 55 -40 10 0 24 -6 30 -12 19
-20 103 -34 142 -26 19 4 47 10 62 13 60 11 80 78 33 109 -14 10 -30 28 -35
42 -5 13 -18 27 -27 31 -10 4 -31 16 -48 29 -16 12 -50 24 -75 27 -25 2 -52 7
-60 10 -8 3 -24 2 -35 -3z"/>
<path d="M3040 3710 c-8 -5 -26 -11 -40 -14 -33 -7 -100 -67 -100 -89 0 -10
-11 -33 -25 -51 -51 -67 -19 -91 106 -80 73 6 79 9 128 52 28 25 51 53 51 64
0 10 7 21 15 24 11 4 15 21 15 55 l0 49 -67 -1 c-38 0 -75 -4 -83 -9z"/>
<path d="M5594 3683 c3 -21 6 -45 6 -54 0 -8 28 -45 63 -82 l62 -66 91 -7 c84
-6 93 -5 102 12 13 26 3 86 -17 104 -10 8 -27 29 -39 46 -11 16 -38 38 -59 49
-21 10 -46 22 -55 26 -10 5 -50 9 -89 9 l-72 0 7 -37z"/>
<path d="M1956 3655 c-11 -8 -39 -15 -62 -15 -33 0 -45 -5 -58 -25 -9 -14 -23
-25 -31 -25 -8 0 -15 -4 -15 -9 0 -5 -13 -11 -30 -14 -24 -5 -30 -12 -30 -32
0 -14 -4 -25 -9 -25 -5 0 -11 -9 -14 -20 -3 -11 -17 -24 -31 -30 -24 -9 -26
-15 -26 -64 0 -44 4 -57 19 -66 11 -5 85 -10 169 -10 121 0 152 3 162 15 7 8
19 15 26 15 8 0 14 4 14 8 0 4 15 12 33 17 22 7 33 17 35 33 3 16 10 22 28 22
18 0 24 5 24 23 0 14 9 26 23 32 12 6 23 20 25 32 2 12 10 27 18 33 8 7 14 29
14 50 l0 37 -66 6 c-36 2 -71 10 -77 16 -16 16 -118 13 -141 -4z"/>
<path d="M6684 3660 c-5 -5 -38 -13 -72 -16 l-62 -7 0 -48 c0 -38 4 -49 19
-54 21 -6 61 -66 61 -91 0 -8 9 -14 20 -14 12 0 25 -10 32 -25 6 -13 20 -27
32 -31 12 -3 35 -17 53 -30 30 -23 39 -24 180 -24 174 0 193 7 193 69 0 25 -5
41 -15 45 -8 3 -15 13 -15 23 -1 22 -23 53 -39 53 -6 0 -11 11 -11 24 0 19 -7
26 -30 31 -16 4 -30 11 -30 16 0 5 -8 9 -19 9 -10 0 -26 11 -35 25 -12 17 -25
25 -47 25 -16 0 -46 7 -66 15 -40 17 -134 20 -149 5z"/>
<path d="M2590 3420 c-8 -5 -34 -10 -58 -10 -35 0 -49 -6 -78 -36 -20 -19 -47
-39 -60 -44 -17 -7 -24 -17 -24 -35 0 -14 -6 -25 -13 -25 -17 0 -50 -57 -43
-75 2 -7 -2 -19 -10 -26 -10 -8 -14 -25 -12 -48 l3 -36 106 -3 c85 -2 108 0
119 13 7 8 20 15 30 15 10 0 20 6 23 14 3 8 18 16 34 18 20 2 29 9 31 26 3 16
10 22 28 22 19 0 24 5 24 25 0 14 4 25 10 25 5 0 12 12 16 28 9 40 28 82 36
82 5 0 8 15 8 34 0 30 -4 34 -31 40 -47 9 -122 7 -139 -4z"/>
<path d="M6036 3415 c-24 -25 -19 -60 14 -98 17 -19 30 -44 30 -56 0 -11 4
-21 8 -21 5 0 24 -22 43 -50 23 -34 41 -50 56 -50 12 0 26 -6 30 -13 4 -7 24
-20 43 -30 28 -15 54 -18 135 -15 97 3 100 4 103 27 2 13 -1 33 -6 45 -6 12
-13 33 -16 47 -3 14 -17 38 -31 53 -14 15 -25 35 -25 44 0 21 -34 52 -56 52
-8 0 -25 12 -38 27 -24 28 -70 39 -207 50 -53 4 -69 1 -83 -12z"/>
<path d="M1028 3332 c-51 -2 -80 -8 -88 -17 -7 -8 -19 -15 -27 -15 -7 0 -16
-7 -19 -15 -4 -8 -17 -15 -29 -15 -13 0 -32 -11 -42 -24 -11 -13 -28 -25 -39
-27 -10 -3 -20 -13 -22 -24 -2 -12 -12 -25 -24 -30 -12 -6 -26 -19 -32 -30
-16 -28 -33 -45 -45 -45 -6 0 -11 -10 -11 -22 0 -13 -12 -34 -25 -47 -28 -26
-38 -56 -33 -92 3 -21 9 -24 58 -27 30 -2 62 -9 70 -17 41 -36 262 -35 315 1
11 8 31 14 45 14 14 0 37 11 52 25 15 14 36 25 46 25 10 0 25 11 32 25 7 13
21 27 30 30 9 3 22 16 29 28 7 13 26 31 42 41 17 10 29 26 29 38 0 11 11 29
25 40 14 11 25 30 25 43 0 13 4 25 10 27 5 2 11 19 12 38 3 30 0 35 -21 38
-14 2 -34 10 -45 17 -23 14 -188 23 -318 17z"/>
<path d="M7528 3331 c-49 -3 -93 -11 -100 -18 -6 -7 -22 -13 -35 -13 -34 0
-40 -28 -15 -71 12 -21 22 -47 22 -59 0 -13 9 -24 25 -30 15 -6 25 -17 25 -29
0 -11 13 -27 30 -38 17 -9 30 -22 30 -27 0 -15 91 -96 107 -96 8 0 24 -11 35
-25 15 -19 29 -25 58 -25 20 0 43 -6 49 -14 30 -36 269 -35 313 1 7 7 38 13
68 15 55 3 55 3 58 37 2 23 -2 37 -12 43 -9 5 -16 15 -16 22 0 8 -7 19 -15 26
-8 7 -15 23 -15 36 0 17 -6 24 -20 24 -12 0 -24 9 -29 23 -5 12 -25 37 -45 55
-20 19 -36 38 -36 43 0 5 -7 9 -15 9 -8 0 -22 11 -31 25 -10 15 -26 25 -40 25
-14 0 -27 7 -30 15 -4 8 -14 15 -25 15 -10 0 -22 6 -26 14 -10 16 -184 25
-315 17z"/>
<path d="M3105 3316 c-11 -9 -27 -16 -36 -16 -9 0 -22 -7 -29 -15 -7 -8 -21
-15 -33 -15 -27 0 -107 -82 -107 -109 0 -12 -11 -37 -24 -54 -25 -33 -41 -111
-30 -140 8 -22 72 -23 100 -2 10 8 27 15 37 15 9 0 17 4 17 9 0 5 15 12 34 15
36 7 146 100 133 112 -4 4 0 15 8 24 12 14 15 37 13 101 l-3 84 -30 3 c-16 2
-39 -4 -50 -12z"/>
<path d="M5193 3323 c-16 -6 -18 -183 -3 -183 6 0 10 -8 10 -17 0 -10 12 -29
26 -43 14 -13 30 -34 35 -47 5 -13 16 -23 24 -23 9 0 40 -13 70 -30 75 -42 85
-35 85 60 0 66 -4 83 -25 114 -14 20 -25 40 -25 44 0 13 -65 72 -79 72 -7 0
-29 14 -48 30 -33 29 -45 33 -70 23z"/>
<path d="M5591 3321 c-10 -6 -12 -17 -6 -37 4 -16 9 -54 12 -84 3 -32 11 -58
19 -63 8 -4 14 -15 14 -23 0 -24 81 -103 114 -110 16 -3 49 -17 74 -30 51 -27
104 -31 122 -9 10 12 9 25 -4 64 -9 28 -16 65 -16 83 0 24 -8 41 -27 59 -16
15 -43 43 -61 63 -18 20 -41 36 -51 36 -10 0 -24 7 -31 15 -7 8 -20 15 -29 15
-9 0 -25 7 -35 15 -22 17 -73 20 -95 6z"/>
<path d="M3512 3295 c-17 -14 -37 -25 -45 -25 -14 0 -39 -27 -94 -99 -20 -25
-23 -41 -23 -119 0 -107 10 -118 73 -76 23 15 52 30 66 33 14 4 30 17 36 29 5
12 15 22 21 22 19 0 44 36 44 63 0 15 5 27 10 27 6 0 10 35 10 85 l0 85 -34 0
c-22 0 -45 -9 -64 -25z"/>
<path d="M4655 3092 c-3 -3 -5 -15 -5 -27 0 -13 -7 -28 -15 -35 -8 -7 -15 -21
-15 -31 0 -10 -4 -21 -10 -24 -5 -3 -10 -30 -10 -59 0 -43 5 -58 25 -80 14
-15 25 -33 25 -41 0 -17 90 -105 107 -105 7 0 21 21 33 46 26 60 30 231 5 240
-8 4 -15 17 -15 30 0 13 -6 24 -13 24 -7 0 -23 13 -34 29 -20 26 -65 45 -78
33z"/>
<path d="M4057 3066 c-9 -13 -27 -36 -41 -51 -35 -38 -49 -114 -37 -209 7 -61
14 -80 33 -96 12 -11 25 -19 28 -19 11 0 50 38 50 48 0 6 11 17 25 23 15 6 25
20 25 31 0 11 7 28 15 37 31 35 27 200 -5 200 -6 0 -10 14 -10 30 0 27 -3 30
-34 30 -25 0 -38 -6 -49 -24z"/>
<path d="M1790 2945 c-14 -8 -41 -14 -61 -15 -26 0 -44 -7 -60 -25 -13 -13
-32 -25 -42 -25 -10 0 -20 -7 -23 -15 -4 -8 -17 -15 -29 -15 -17 0 -25 -7 -27
-22 -2 -14 -12 -24 -28 -28 -18 -5 -24 -12 -23 -29 2 -12 -4 -24 -12 -27 -8
-4 -15 -17 -15 -29 0 -13 -5 -25 -11 -27 -5 -2 -11 -11 -12 -19 -2 -9 -10 -23
-18 -32 -17 -17 -33 -115 -23 -142 6 -14 21 -16 118 -12 131 6 181 14 197 33
6 8 27 14 45 14 27 0 37 5 46 25 6 14 19 25 29 25 9 0 19 7 23 15 3 8 17 15
31 15 20 0 25 5 25 24 0 15 7 26 18 28 22 6 62 83 62 120 0 14 11 37 26 53 21
22 24 35 22 74 l-3 46 -115 2 c-86 2 -121 -1 -140 -12z"/>
<path d="M6747 2953 c-13 -13 -8 -122 7 -130 19 -12 36 -48 36 -78 0 -18 6
-29 20 -32 20 -5 60 -64 60 -89 0 -8 8 -14 19 -14 10 0 24 -7 31 -15 7 -8 19
-15 26 -15 7 0 21 -11 30 -25 12 -19 25 -25 52 -25 19 0 43 -6 51 -13 32 -27
96 -38 196 -35 l100 3 3 58 c3 52 0 61 -27 95 -17 20 -31 45 -31 56 0 35 -34
96 -57 102 -16 4 -23 14 -23 30 0 19 -5 24 -25 24 -14 0 -28 7 -31 15 -4 8
-15 15 -26 15 -11 0 -29 11 -40 25 -15 19 -29 25 -61 25 -23 0 -51 7 -61 15
-15 11 -49 15 -131 15 -62 0 -115 -3 -118 -7z"/>
<path d="M3660 2905 c-13 -14 -29 -25 -36 -25 -20 0 -64 -52 -64 -75 0 -11 -6
-29 -13 -40 -22 -34 -40 -102 -34 -132 14 -72 21 -89 40 -110 24 -27 45 -30
53 -8 4 8 17 15 30 15 17 0 27 8 34 25 5 14 15 25 22 25 16 0 54 39 73 76 15
30 22 224 9 258 -10 27 -86 21 -114 -9z"/>
<path d="M5020 2903 c0 -16 -7 -41 -15 -57 -19 -36 -19 -83 0 -120 8 -15 15
-39 15 -53 0 -31 17 -63 33 -63 7 0 29 -18 50 -40 20 -22 44 -40 52 -40 9 0
18 -6 21 -14 8 -21 64 -32 75 -15 5 8 9 73 9 144 l0 131 -47 50 c-71 74 -116
104 -157 104 -33 0 -36 -3 -36 -27z"/>
<path d="M2674 2865 c-10 -8 -40 -15 -66 -15 -43 0 -108 -26 -108 -42 0 -5 -9
-8 -20 -8 -11 0 -29 -13 -41 -29 -12 -16 -30 -32 -40 -34 -10 -3 -22 -13 -26
-24 -4 -10 -13 -24 -20 -31 -7 -7 -13 -19 -13 -27 0 -7 -7 -15 -15 -19 -9 -3
-15 -18 -15 -36 0 -17 -4 -38 -9 -48 -5 -9 -17 -46 -27 -80 -27 -96 -10 -110
96 -82 25 7 53 16 62 21 10 5 33 9 52 9 21 0 36 6 40 15 3 8 12 15 21 15 8 0
15 4 15 9 0 5 9 13 21 16 30 10 109 93 109 115 0 10 7 20 15 24 10 3 15 19 15
45 0 22 5 43 10 46 6 3 10 19 10 36 0 16 4 29 9 29 6 0 13 21 17 46 5 34 3 48
-7 55 -21 13 -63 11 -85 -6z"/>
<path d="M6027 2873 c-13 -12 -7 -101 8 -129 8 -16 15 -39 15 -52 0 -12 7 -25
16 -29 8 -3 13 -12 9 -21 -7 -19 21 -62 40 -62 9 0 15 -10 15 -25 0 -16 6 -25
15 -25 9 0 15 -9 15 -25 0 -16 6 -25 16 -25 20 0 76 -31 87 -47 4 -7 28 -13
52 -13 24 0 46 -4 49 -9 4 -5 24 -12 46 -16 22 -4 42 -11 46 -16 3 -5 14 -9
25 -9 17 0 19 7 19 74 0 41 -4 78 -10 81 -5 3 -10 25 -10 48 0 34 -6 48 -30
70 -16 16 -30 36 -30 46 0 18 -91 111 -108 111 -15 0 -72 34 -72 43 0 4 -20 7
-44 7 -24 0 -57 7 -72 15 -30 15 -86 20 -97 8z"/>
<path d="M3235 2860 c-3 -5 -17 -10 -31 -10 -14 0 -35 -11 -48 -25 -13 -14
-33 -25 -44 -25 -15 0 -24 -8 -28 -25 -4 -15 -16 -28 -30 -31 -17 -4 -24 -13
-24 -30 0 -13 -3 -24 -7 -24 -5 0 -16 -14 -25 -31 -14 -24 -18 -54 -18 -145
l0 -114 35 0 c19 0 35 5 35 10 0 6 15 10 33 10 28 0 45 11 98 63 112 110 116
117 123 177 3 30 8 78 12 106 4 40 2 58 -11 78 -17 26 -58 36 -70 16z"/>
<path d="M5470 2771 c0 -56 4 -103 10 -106 6 -3 10 -22 10 -40 0 -23 6 -38 19
-44 10 -6 26 -26 35 -44 9 -20 30 -41 49 -50 18 -9 43 -27 56 -41 15 -16 35
-26 52 -26 15 0 31 -4 34 -10 3 -5 22 -10 41 -10 l34 0 0 114 c0 89 -3 116
-15 126 -8 7 -15 21 -15 31 0 11 -4 19 -10 19 -5 0 -10 11 -10 25 0 20 -5 25
-24 25 -19 0 -25 6 -28 28 -2 19 -9 28 -25 30 -12 2 -33 14 -48 28 -15 14 -38
24 -55 24 -16 0 -32 5 -35 10 -3 6 -22 10 -41 10 l-34 0 0 -99z"/>
<path d="M4350 2781 c-11 -23 -27 -41 -35 -41 -10 0 -15 -10 -15 -28 0 -15 -5
-33 -11 -39 -7 -7 -14 -46 -17 -87 -4 -59 -1 -81 12 -100 9 -14 16 -36 16 -48
1 -24 31 -68 48 -68 5 0 12 -7 16 -15 12 -33 96 3 96 42 0 6 7 16 15 23 8 7
15 20 15 30 0 10 7 31 15 46 19 37 19 115 0 140 -8 10 -15 36 -15 57 0 30 -5
40 -24 48 -14 7 -27 22 -30 34 -3 12 -14 25 -23 29 -10 3 -23 9 -30 12 -7 3
-21 -12 -33 -35z"/>
<path d="M4757 2564 c-4 -4 -7 -16 -7 -26 0 -10 -11 -36 -25 -58 -23 -36 -25
-49 -25 -153 0 -108 1 -115 25 -137 14 -13 25 -31 25 -39 0 -31 104 -131 137
-131 7 0 21 19 31 43 10 23 26 48 35 56 14 11 17 34 17 136 0 122 0 122 -30
153 -16 18 -30 38 -30 46 0 21 -88 104 -119 111 -15 3 -30 3 -34 -1z"/>
<path d="M3943 2548 c-4 -7 -8 -16 -8 -20 0 -3 -12 -16 -27 -28 -16 -12 -28
-27 -28 -35 0 -7 -7 -15 -15 -19 -8 -3 -15 -13 -15 -22 0 -9 -8 -22 -17 -29
-25 -18 -24 -262 1 -280 9 -7 16 -18 16 -26 1 -23 37 -59 59 -59 12 0 21 5 21
10 0 6 6 10 13 10 6 1 26 19 42 40 17 21 35 39 42 40 18 0 43 41 43 72 0 15 5
30 10 33 6 3 10 52 10 111 0 63 -4 104 -10 104 -5 0 -10 15 -10 33 -1 48 -30
77 -79 77 -22 0 -43 -6 -48 -12z"/>
<path d="M3447 2345 c-10 -14 -25 -25 -33 -25 -22 0 -94 -62 -94 -81 0 -10
-11 -20 -25 -23 -16 -4 -25 -13 -25 -27 0 -11 -13 -33 -30 -49 l-30 -29 0
-138 c0 -76 3 -155 6 -176 l7 -38 56 3 c47 3 58 7 66 26 5 12 17 22 25 22 8 0
31 18 50 40 19 22 41 40 48 40 6 0 12 9 12 19 0 11 12 28 27 39 41 30 54 151
36 322 -4 41 -12 81 -16 88 -14 21 -60 13 -80 -13z"/>
<path d="M5255 2358 c-17 -53 -29 -288 -16 -301 6 -6 11 -30 11 -53 0 -34 5
-45 25 -58 14 -10 30 -28 36 -42 5 -14 18 -28 28 -31 10 -2 28 -18 40 -34 12
-16 27 -29 35 -29 7 0 19 -11 26 -25 11 -21 20 -25 59 -25 43 0 47 2 64 38 16
33 18 59 15 175 -3 132 -4 136 -30 164 -16 16 -28 39 -28 50 0 15 -7 23 -22
25 -13 2 -24 12 -28 25 -5 23 -80 83 -104 83 -7 0 -21 11 -30 25 -18 27 -73
36 -81 13z"/>
<path d="M2050 2230 c-8 -5 -39 -10 -68 -10 -51 0 -133 -28 -147 -50 -3 -5
-19 -10 -34 -10 -40 0 -69 -17 -127 -77 -28 -29 -56 -53 -62 -53 -7 0 -12 -11
-12 -23 0 -16 -9 -28 -25 -35 -18 -9 -25 -19 -25 -41 0 -16 -6 -31 -15 -35 -8
-3 -15 -16 -15 -30 0 -13 -7 -26 -15 -30 -11 -4 -15 -23 -15 -81 0 -43 -4 -75
-10 -75 -5 0 -10 -22 -10 -50 l0 -50 39 0 c22 0 43 5 46 10 3 6 25 10 48 10
23 0 51 7 61 15 11 8 37 15 58 15 21 0 38 5 38 10 0 6 14 10 31 10 22 0 40 9
59 30 15 17 37 30 48 30 11 0 22 9 25 21 3 11 15 23 26 26 12 3 21 11 21 18 0
7 7 15 15 19 8 3 15 14 15 25 0 11 11 28 25 39 17 14 25 30 25 51 0 19 6 34
15 37 8 4 15 16 15 29 0 13 6 25 14 28 9 4 15 32 19 94 4 48 8 99 9 113 3 21
-1 25 -27 28 -16 1 -37 -2 -45 -8z"/>
<path d="M6667 2234 c-11 -11 -9 -112 3 -119 6 -3 10 -29 10 -56 0 -48 27
-120 50 -134 5 -3 10 -17 10 -31 0 -13 4 -24 10 -24 5 0 17 -17 27 -37 18 -39
47 -73 61 -73 5 0 15 -11 22 -25 7 -14 20 -25 28 -25 8 0 27 -13 42 -30 19
-21 38 -30 58 -30 17 0 34 -4 37 -10 3 -5 23 -10 44 -10 22 0 44 -6 51 -15 8
-9 29 -15 56 -15 23 0 46 -4 49 -10 3 -5 22 -10 41 -10 l34 0 0 105 c0 97 -2
110 -30 165 -16 33 -30 65 -30 72 0 7 -11 25 -25 40 -14 15 -25 36 -25 47 0
13 -8 21 -22 23 -15 2 -24 11 -26 26 -2 12 -9 22 -15 22 -7 0 -18 9 -25 20
-15 25 -87 60 -123 60 -15 0 -29 7 -33 15 -3 8 -14 15 -24 15 -10 0 -24 6 -30
13 -7 6 -45 15 -85 19 -40 4 -86 10 -102 13 -17 4 -33 3 -38 -1z"/>
<path d="M4363 2157 c-4 -7 -20 -20 -35 -30 -18 -11 -28 -26 -28 -41 0 -13 -7
-29 -15 -36 -8 -7 -15 -25 -15 -41 0 -15 -4 -31 -10 -34 -5 -3 -10 -15 -10
-26 0 -11 -7 -28 -16 -36 -12 -12 -14 -28 -11 -62 7 -60 29 -141 39 -141 5 0
8 -11 8 -24 0 -13 6 -29 14 -35 7 -6 16 -24 19 -40 4 -19 14 -31 30 -35 17 -4
23 -12 23 -28 -1 -20 4 -23 39 -23 35 0 40 3 38 21 -2 14 9 30 27 44 17 13 30
29 30 37 0 8 11 29 24 46 20 27 24 46 27 117 6 165 1 206 -26 236 -14 15 -25
36 -25 47 0 44 -107 116 -127 84z"/>
<path d="M2745 2151 c-3 -6 -19 -11 -34 -11 -16 0 -34 -7 -41 -15 -7 -8 -18
-15 -25 -15 -7 0 -18 -7 -25 -15 -7 -8 -23 -15 -36 -15 -16 0 -24 -7 -26 -22
-2 -17 -11 -24 -30 -26 -22 -3 -28 -9 -28 -27 0 -17 -6 -25 -22 -27 -17 -2
-24 -11 -26 -30 -2 -16 -9 -28 -18 -28 -10 0 -14 -12 -14 -40 0 -22 -3 -40 -8
-40 -21 0 -36 -82 -36 -200 l-1 -125 65 3 c37 2 72 10 81 18 8 8 21 14 27 14
7 0 12 4 12 9 0 5 15 12 33 15 23 4 38 15 45 31 6 14 18 25 26 25 7 0 30 18
50 40 20 22 40 40 46 40 5 0 10 9 10 20 0 12 11 31 25 44 20 18 25 33 25 68 0
29 6 50 15 58 13 11 15 35 13 134 l-3 121 -47 3 c-25 2 -49 -2 -53 -7z"/>
<path d="M5938 2133 c-23 -57 -8 -251 21 -261 6 -2 11 -24 11 -49 0 -35 6 -51
25 -72 14 -14 44 -47 67 -73 22 -27 46 -48 53 -48 6 0 24 -13 38 -30 15 -16
33 -30 41 -30 17 0 74 -28 81 -41 4 -5 32 -9 64 -9 l58 0 13 44 c7 25 10 67 6
97 -20 198 -20 197 -49 226 -15 16 -27 39 -27 51 0 14 -9 27 -25 34 -16 7 -25
19 -25 35 0 18 -5 23 -28 23 -19 0 -30 7 -37 22 -6 13 -19 25 -30 27 -11 2
-35 16 -53 32 -20 18 -44 29 -62 29 -16 0 -32 5 -35 10 -3 6 -26 10 -51 10
-39 0 -46 -3 -56 -27z"/>
<path d="M3800 1727 c0 -18 -56 -65 -83 -69 -14 -2 -23 -11 -25 -25 -2 -13
-14 -31 -28 -42 -13 -10 -24 -29 -24 -41 0 -13 -12 -33 -27 -46 -22 -19 -27
-32 -29 -76 -1 -29 -5 -61 -9 -71 -4 -10 -5 -42 -1 -70 4 -29 9 -79 11 -111 4
-43 11 -66 26 -83 12 -12 25 -39 28 -58 7 -40 55 -81 69 -59 4 7 18 14 32 15
16 3 26 12 30 29 4 18 13 26 33 28 21 3 27 9 27 28 0 13 5 24 10 24 6 0 10 9
10 19 0 12 11 25 28 33 19 9 28 22 30 43 2 16 7 32 10 35 4 3 15 20 25 38 24
46 26 282 2 282 -9 0 -15 9 -15 24 0 14 -4 28 -10 31 -5 3 -10 21 -10 40 0 24
-5 35 -18 40 -11 3 -24 17 -30 30 -12 27 -62 36 -62 12z"/>
<path d="M4922 1728 c-7 -7 -12 -18 -12 -25 0 -8 -7 -16 -15 -19 -8 -4 -15
-17 -15 -30 0 -13 -11 -43 -25 -68 -23 -42 -25 -54 -25 -182 0 -131 1 -139 25
-170 14 -18 25 -42 25 -54 0 -13 9 -24 25 -30 14 -5 29 -20 34 -32 5 -13 25
-39 45 -57 20 -19 36 -43 36 -53 0 -15 9 -18 51 -18 59 0 78 16 79 67 0 17 4
34 9 37 5 3 18 24 30 46 18 35 21 58 21 175 l0 134 -30 31 c-16 17 -30 40 -30
51 0 11 -6 27 -12 34 -20 22 -32 38 -51 68 -10 15 -22 27 -28 27 -6 0 -27 18
-46 40 -37 41 -69 50 -91 28z"/>
<path d="M5607 1523 c-4 -3 -7 -25 -7 -48 0 -24 -6 -48 -14 -54 -23 -20 -46
-245 -27 -264 6 -6 11 -23 11 -38 0 -15 7 -32 15 -39 9 -7 15 -29 15 -51 0
-22 5 -39 11 -39 17 0 39 -27 39 -49 0 -11 6 -24 14 -28 8 -4 15 -17 17 -28 2
-11 15 -22 29 -25 16 -4 25 -13 25 -25 0 -11 9 -21 21 -25 12 -3 37 -17 55
-32 18 -16 41 -28 51 -28 10 0 18 -4 18 -10 0 -5 9 -10 20 -10 11 0 23 -7 26
-15 8 -20 24 -18 52 4 17 15 22 30 22 64 0 25 7 58 15 73 21 41 21 246 0 268
-9 8 -15 33 -15 56 0 33 -5 46 -25 62 -14 11 -25 30 -25 44 0 15 -6 24 -15 24
-9 0 -15 9 -15 25 0 20 -6 27 -29 31 -20 4 -31 13 -33 28 -2 11 -12 22 -22 24
-10 2 -29 15 -41 28 -12 13 -29 24 -37 24 -9 0 -21 7 -28 15 -7 8 -20 15 -30
15 -10 0 -23 7 -30 15 -13 15 -51 20 -63 8z"/>
<path d="M3115 1510 c-3 -5 -17 -10 -29 -10 -13 0 -29 -7 -36 -15 -7 -8 -20
-15 -30 -15 -9 0 -23 -11 -30 -24 -7 -15 -23 -26 -39 -28 -18 -2 -27 -10 -29
-25 -3 -23 -56 -83 -73 -83 -6 0 -9 -9 -6 -19 3 -14 -4 -27 -24 -42 -16 -12
-29 -31 -29 -41 0 -22 -27 -114 -41 -140 -12 -23 -12 -145 0 -152 5 -4 12 -29
16 -56 4 -28 11 -50 16 -50 5 0 9 -22 9 -49 0 -41 3 -51 20 -56 12 -4 31 0 45
9 13 9 32 16 40 16 9 0 23 6 30 13 33 29 45 37 55 37 5 0 10 5 10 10 0 6 8 13
18 17 23 8 124 114 142 150 8 15 21 32 27 36 8 5 13 29 13 56 0 34 5 51 15 55
22 8 21 262 0 290 -8 11 -15 41 -15 67 0 33 -4 49 -16 53 -24 9 -52 7 -59 -4z"/>
<path d="M4355 1261 c-3 -10 -17 -22 -30 -25 -18 -5 -25 -13 -25 -30 0 -13 -7
-27 -16 -30 -9 -3 -14 -13 -11 -20 3 -8 -1 -20 -9 -26 -8 -7 -14 -20 -14 -30
0 -10 -7 -20 -15 -24 -9 -3 -15 -19 -15 -41 0 -19 -4 -35 -10 -35 -5 0 -10
-11 -10 -24 0 -13 -7 -29 -15 -36 -21 -17 -21 -168 0 -196 8 -10 15 -29 15
-41 0 -13 5 -23 10 -23 6 0 10 -17 10 -37 1 -38 18 -73 37 -73 6 0 13 -13 16
-30 8 -39 48 -98 70 -104 14 -3 17 -10 12 -25 -6 -19 -2 -21 30 -21 28 0 37 5
44 23 5 12 21 31 35 41 14 10 26 28 26 40 0 12 9 25 23 31 15 7 23 20 25 42 2
17 10 37 18 43 8 7 14 29 14 49 0 20 4 41 10 47 8 8 32 101 32 129 1 32 -25
151 -33 153 -5 2 -9 21 -9 42 0 24 -5 40 -15 44 -8 3 -15 17 -15 31 0 14 -4
25 -10 25 -5 0 -19 20 -30 45 -11 24 -30 49 -41 55 -11 7 -29 20 -40 31 -24
24 -56 24 -64 0z"/>
</g>
</svg>
